# xmcd
#
# Track frame offsets: 
#        150
#        16484
#        30445
#        40940
#        62317
#        77728
#        95300
#        110083
#        118980
#        131356
#        146920
#        160055
#        167305
#        180417
#
# Disc length: 2596 seconds
#
# Revision: 0
# Processed by: cddbd v1.5.2PL0 Copyright (c) Steve Scherf et al.
# Submitted via: ExactAudioCopy v1.0b3
#
DISCID=ab0a220e
DTITLE=Big Town Playboys - Roll The Dice
DYEAR=2004
DGENRE=Pop/Rock
TTITLE0=The Big Town Playboys - Sweet Lovin Mama
TTITLE1=The Big Town Playboys - Yield Not
TTITLE2=The Big Town Playboys - Hit Git and Split
TTITLE3=The Big Town Playboys - Down In The Hole
TTITLE4=The Big Town Playboys - Merry Way
TTITLE5=The Big Town Playboys - Look Out Mabel
TTITLE6=The Big Town Playboys - Daddy Rollin Stone
TTITLE7=The Big Town Playboys - Hot Dog
TTITLE8=The Big Town Playboys - Sweet Baby Of Mine
TTITLE9=The Big Town Playboys - Not For Me
TTITLE10=The Big Town Playboys - Up The Line
TTITLE11=The Big Town Playboys - Come To Love
TTITLE12=The Big Town Playboys - One Monkey
TTITLE13=The Big Town Playboys - Big Town
EXTD=
EXTT0=
EXTT1=
EXTT2=
EXTT3=
EXTT4=
EXTT5=
EXTT6=
EXTT7=
EXTT8=
EXTT9=
EXTT10=
EXTT11=
EXTT12=
EXTT13=
PLAYORDER=
